<svg xmlns="http://www.w3.org/2000/svg" xmlns:xlink="http://www.w3.org/1999/xlink" width="100%" height="100%" viewBox="317 317 866 866" preserveAspectRatio="xMidYMid meet" version="1.0">
  <!-- Solid white background circle to guarantee contrast and maximum tab size -->
  <circle cx="750" cy="750" r="433" fill="#ffffff" />
  <!-- Letter 'C' Path -->
  <path fill="#262626" d="M 1069.746094 806.5 C 1069.746094 806.5 1076.246094 887.75 941.996094 894.25 C 922.496094 894.5 903.996094 891.25 887.246094 883.25 C 871.496094 876 857.496094 864.75 845.746094 850.25 C 833.996094 835.75 824.746094 817.5 818.246094 796.25 C 811.746094 774.75 808.246094 749.75 808.246094 722 C 808.246094 695 811.246094 670.5 817.246094 648.75 C 823.246094 627.25 831.746094 608.75 842.746094 593.5 C 853.746094 578.5 866.746094 566.75 881.746094 558.75 C 896.746094 550.75 913.996094 546.75 932.496094 546.75 C 952.496094 546.75 971.746094 549.75 989.746094 556 C 1007.746094 562 1022.746094 572 1034.496094 585.5 C 1039.746094 591.25 1044.246094 597.25 1047.246094 603.25 C 1050.496094 609.25 1053.246094 616.25 1055.496094 624.75 C 1056.496094 628.75 1057.746094 633.5 1058.746094 638.75 L 1066.746094 638.75 L 1066.746094 560 C 1036.246094 545 993.496094 538 967.496094 534.75 C 961.246094 533.75 954.746094 533.25 947.746094 532.75 C 945.746094 532.5 944.496094 532.5 944.496094 532.5 C 940.746094 532.25 936.746094 532.25 932.746094 532.25 C 895.996094 532.25 862.996094 540.25 834.746094 556.25 C 807.496094 572.5 784.996094 595 768.746094 623.75 C 752.496094 652.25 744.246094 686 744.246094 724.25 C 744.246094 763 752.246094 796.5 767.746094 824.25 C 783.496094 852 805.746094 873.25 833.996094 888 C 862.246094 902.75 895.746094 910 932.996094 910 C 932.996094 910 996.996094 913 1075.996094 882.5 L 1075.996094 806.5 Z M 1069.746094 806.5 " fill-opacity="1" fill-rule="nonzero"/>
  <!-- Letter 'N' Path -->
  <path fill="#262626" d="M 749.496094 868.25 C 731.746094 846.5 699.496094 805.25 669.746094 766.5 L 669.996094 766.25 C 634.25 720.25 600.75 676.75 600.75 676.75 C 600.75 676.75 694.246094 586.25 715.246094 570 C 736.246094 553.75 782.496094 546.75 782.496094 546.75 L 782.496094 536.75 L 665 536.75 L 665 546.75 C 665 546.75 705.746094 550.25 681.246094 575.25 C 656.75 600.25 540 709 540 709 L 529 709 C 529 654.25 529 601.25 529 582.75 C 529 543.75 573.5 546.5 573.5 546.5 L 573.5 536.5 L 424 536.5 L 424 546.5 C 424 546.5 468.5 543.5 468.5 582.75 C 468.5 621.75 468.5 817 468.5 855.5 C 468.5 894 424 891.75 424 891.75 L 424 901 L 573.5 901 L 573.5 891.75 C 573.5 891.75 529 894 529 855.5 C 529 836.25 529 777.5 529 718.75 L 558.75 718.75 C 558.75 718.75 605 777.25 640.75 821.75 L 641.25 821 C 669.746094 856.25 700.996094 894.25 726.746094 924.5 C 746.746094 948.25 771.746094 959.75 796.746094 964.75 C 838.246094 974.25 910.496094 957 910.496094 957 L 910.496094 951 C 909.496094 951.5 907.996094 952 906.496094 952.5 C 908.996094 951.5 910.496094 951 910.496094 951 C 845.996094 959.25 788.996094 916.5 749.496094 868.25 Z M 749.496094 868.25 " fill-opacity="1" fill-rule="nonzero"/>
  <!-- Outer Ring Path (Green/Gray) -->
  <path fill="#828f7c" d="M 749.996094 1182.5 C 511.5 1182.5 317.5 988.5 317.5 750 C 317.5 511.5 511.5 317.5 749.996094 317.5 C 988.496094 317.5 1182.496094 511.5 1182.496094 750 C 1182.496094 988.5 988.496094 1182.5 749.996094 1182.5 Z M 749.996094 329.25 C 518 329.25 329.25 518 329.25 750 C 329.25 982 518 1170.75 749.996094 1170.75 C 981.996094 1170.75 1170.746094 982 1170.746094 750 C 1170.746094 518 981.996094 329.25 749.996094 329.25 Z M 749.996094 329.25 " fill-opacity="1" fill-rule="nonzero"/>
</svg>
